<?xml version="1.0" encoding="UTF-8"?>
<svg width="30px" height="20px" viewBox="0 0 30 20" version="1.1" xmlns="http://www.w3.org/2000/svg" xmlns:xlink="http://www.w3.org/1999/xlink">
    <title>member gold</title>
    <defs>
        <polygon id="path-1" points="0 0 6.25 0 6.25 7.5 0 7.5"></polygon>
    </defs>
    <g id="Page-1" stroke="none" stroke-width="1" fill="none" fill-rule="evenodd">
        <g id="Membership-Card-face---digital" transform="translate(-91.000000, -1316.000000)">
            <g id="Group" transform="translate(91.000000, 1316.000000)">
                <path d="M2,0 L28,0 C29.1045695,0 30,0.8954305 30,2 L30,18 C30,19.1045695 29.1045695,20 28,20 L2,20 C0.8954305,20 0,19.1045695 0,18 L0,2 C0,0.8954305 0.8954305,0 2,0 Z" id="color" fill="#8F7000" fill-rule="nonzero"></path>
                <g transform="translate(18.000000, 5.000000)" id="1_iconography/utility/brushwing-simplified">
                    <rect id="Rectangle" fill-opacity="0" fill="#FFFFFF" x="0" y="0" width="10" height="10"></rect>
                    <g id="Group-3" transform="translate(1.875000, 1.250000)">
                        <mask id="mask-2" fill="white">
                            <use xlink:href="#path-1"></use>
                        </mask>
                        <g id="Clip-2"></g>
                        <path d="M0.0493154006,1.29070676 C0.0496707997,1.36277648 0.119526473,1.617165 0.181207967,1.8272471 L0.189737546,1.87411923 L0.217616633,1.9551881 L0.240678088,2.04238405 C0.259593219,2.09247289 0.277837041,2.15117793 0.296396773,2.20199436 L0.303820666,2.24342871 L0.322775287,2.3097543 L0.338768247,2.34000674 L0.352510347,2.37929661 L0.367358133,2.41100423 L0.377783174,2.46216531 L0.394486933,2.50107224 L0.406017661,2.54323418 L0.42532768,2.57712456 L0.436858407,2.61204889 L0.45245648,2.64773911 L0.46619858,2.68917346 L0.484402913,2.72413608 L0.493722268,2.76591508 L0.52341784,2.82178635 L0.537159939,2.86643741 L0.563933341,2.91656455 L0.591812428,2.98177961 C0.608160788,3.01850377 0.614084107,3.05997641 0.631182754,3.09601127 L0.673909627,3.17382513 L0.690257987,3.21885914 L0.718887361,3.26427609 L0.737447093,3.31398199 L0.771288988,3.37165308 L0.784280801,3.40554347 L0.821795154,3.46823111 L0.837432715,3.51253753 L0.879409301,3.57920777 L0.903536953,3.63075179 L0.947409002,3.69665615 L0.979710834,3.75539949 L1.01094647,3.80441609 L1.04028664,3.85596011 L1.07223307,3.90459377 L1.12242333,3.99106213 L1.16439991,4.04942252 C1.20266455,4.10023896 1.25727755,4.19176215 1.28069441,4.22239752 L1.33420172,4.30132192 L1.37992974,4.3604099 L1.41408755,4.40831597 L1.4241177,4.42095307 C1.91200173,5.02309142 2.41362786,5.42230868 2.83947499,5.68355187 C3.06313951,5.81869218 3.18389624,5.85867134 3.18389624,5.85867134 L3.17797292,5.89903345 L0.657205868,7.4628929 L0.63750096,7.49751088 L0.676515887,7.5 C2.69936876,6.8113933 4.16823336,6.2453281 5.06593207,5.83201857 C5.9755564,5.41330954 6.28100221,5.17404724 6.2475552,5.05476074 C6.21631957,4.94305649 5.87821653,4.99061792 5.59989952,4.96576497 C5.34685534,4.94343943 5.0232052,4.89909472 4.63270053,4.76793701 C4.26778461,4.6454338 3.91554458,4.50527694 3.6078874,4.34421145 L3.46892634,4.27321396 L3.39832038,4.23177961 L3.34406278,4.20221647 L3.28905489,4.17123644 L3.22476714,4.13592917 L3.1523052,4.08764016 L3.10515559,4.05987685 L3.05607102,4.03176889 L2.99142786,3.98639023 L2.94609473,3.95862692 L2.89629936,3.922975 L2.86770948,3.902411 L2.8119513,3.85450493 L2.78928474,3.83646835 C2.7235359,3.7745083 2.65628648,3.71109307 2.5801126,3.64082317 C0.964507649,2.14830586 0.0597009529,0 0.0597009529,0 C-0.0926468074,0.303060474 0.092753072,1.07055327 0.108746033,1.1512775 C0.124738994,1.23269101 0.0485651135,1.16280406 0.0493154006,1.29070676 Z" id="Fill-1" fill="#FFFFFF" mask="url(#mask-2)"></path>
                    </g>
                </g>
            </g>
        </g>
    </g>
</svg>